#tb 0: 1/25
0,          0,          0,        1,  1382400, 0x7119bbe5
0,          1,          1,        1,  1382400, 0xbeda2c83
0,          2,          2,        1,  1382400, 0x2cbe6669
0,          3,          3,        1,  1382400, 0x3cee2619
0,          4,          4,        1,  1382400, 0x93e388e3
0,          5,          5,        1,  1382400, 0x5e286889
0,          6,          6,        1,  1382400, 0x4718f29c
0,          7,          7,        1,  1382400, 0xbedf4dbd
